<svg id="Layer_1" data-name="Layer 1" xmlns="http://www.w3.org/2000/svg" width="105.45mm" height="39.93mm" viewBox="0 0 298.92 113.18"><defs><style>.cls-1{fill:#f5bf3b;}.cls-2{fill:#c94b17;}.cls-3{fill:#575756;}</style></defs><title>logo2019</title><rect class="cls-1" x="1.59" y="16.4" width="74.44" height="80.63"/><path class="cls-2" d="M153.61,368.35l-.17-.15-1.05.31.34.3h.88Zm-.17-2.62.17.18.33-.33q0,.48.51.48v.15a1.81,1.81,0,0,0-1.18.31h-.17v-.79Zm4.11.63h.17v.31l-.17.15h-.34v-.15Zm-.87.46-.17.6-.34-.3.34-.3Zm1.38.75-.17-.45.34-.3v.75Zm2.22-.45-.17.15-1-.75h.68Zm.88-1.21v-.48h.17l.17.48v.15l.5-.15h.17l.17.15v-.33h.34v.48l-.34.31.34,1.38h-.34a2,2,0,0,0-1.18-2m7.69,2.14a2,2,0,0,0,1.21-.3l-.17.45c0,.2.28.31.85.31l-.17.9h-.68v-.15h.34l-.34-.6-.17.15c-.58-.12-.87-.27-.87-.46Zm-5.3.15.17.46v.15h-.34v-.61Zm5-2.29h.34l.54.45v.16h-.88l-.17-.16Zm-4.62,1.36h-.17l.51-.45h.17Zm2.56-.75h.34l-.17.15.17.75-.34.33h-.17L166,367Zm-1.89-.31h-.16v-.15h.16l.17.15-.17.46h-.16v-.31Zm7.22,3.68.51-.48v-1.06l-.51-.15-.68.15v-.78h-1.21v-.3h.34l-.34-1.54h.17l.17-.15h.17l.17.78h-.17l.34.91.87-.15h.68v-.3h.33l.17.75H173v-.45l1.38.78v.61c-.78-.17-1.18-.37-1.18-.61v-.15l-.54.15h-.17v-.33h-.33v.63h.67v1.06l.54.15v.18l-.17.15,1,.15v.3H174l-.84-.15v.15l-.2.15v.46h.37v.45l-1.38-.6q-.4,0-.51.78-.87,0-.87.3h-.17v-.3l.17-.18-1.35-.15v-.3l.84.15h.17l.17-.15.17.15h.17l.7-.61V370h-.54l.37-.3h.34Zm-5.33.45.34.91v.18h-.17l-.5-.48v-.61Zm-2,.91-.34,2h-.84l-.17-.94c-.47,0-.71-.1-.71-.3v-.3h.17a2.12,2.12,0,0,0,1.21.45h.17l.17-.93Zm-5.84,1.39c0,.52.29.78.88.78l-.17.45h-1l.16-1.23Zm3.44,1.08h.51l.17.15v.45h-.17V374a2.29,2.29,0,0,0-1.18.6v-.45c.45,0,.67-.15.67-.45m-9.61.15v.6h-.17c-.22,0-.39-.3-.5-.9v-.15h.17Zm14.4.45q0-.75-.84-.75v-.45l1.21-.18h.17l.51.48a1.37,1.37,0,0,1-1.05.9m3.78-.6c-.45-.16-.68-.31-.68-.45h.68Zm-5-.93v.15h-.71v-.3Zm3.44,0,.34-.31h.16v.31ZM167.5,372l-.17-.45v-.15h.51v.6Zm9.41-5.51-.51-.46h.51l.2.15v.15Zm2.42-.31-.54-.3v-.18l.17-.15.54.15v.33Zm-27.61-.93c-.23,0-.34.36-.34,1.08-.7.13-1,.28-1,.46v.93h1c.22,0,.34-.31.34-.93h1.21l.17-.15.17,1.23.84-.15c.45,0,.68-.36.68-1.08l.37.3v.15l-.17.15,1,.3h.17l-.17.48v.3c0,.21.41.31,1.21.31v.15H157l-.7.3v.48h.34l.16-.18v.78l-1-.3h-.17l-.17.15.17-.78v-.15l-.33-.3h-.54a1.21,1.21,0,0,1-.85.93c.18.8.53,1.21,1.05,1.21h.17l-.17.48,1.35,1.69.34-.33,1,.48v.3l-1.38.3h-.51v-.3h.34v-.15c-.56-.2-.84-.51-.84-.94h-.17c-.7,0-1,.27-1,.79h-.17v-.33l.85-.91v-.6h-1v.6h-.16l-1.05-.6c0-.52-.17-.78-.5-.78v-.76c0-.2-.4-.36-1.18-.48l-.21.93c.41.61.76.91,1.05.91v.18l-.34.3h-.17v-.15l-.33-.63h-.71v.93h.33l.38.91h-.54l-.17-.15-.34.48v.75l1,.91h2.22l.84-.16.17.16h.17v-.46l-.17-.15h.34a2.41,2.41,0,0,0,1.38.61h11.33l1.52-.16,1.21.16h4v-.31l-.68-.15H173l.37-.9h-.17c0-.52-.12-.78-.37-.78,0,.42-.11.63-.34.63h-.33l.17-.15-.34-.79v-.15l.84.15h.88l.17-.15q0-.75.33-.75c.21,0,.83-.67,1.89-2h.51v.33q.87,0,.87.3c.79,0,1.18-.41,1.18-1.23l-.5-.3h-.51l-.17.15q0,.45-.33.45h-.2l-.17-.45h.17c0-.21-.34-.31-1-.31a1.05,1.05,0,0,1,.68-1.08h.17c.24,0,.37.26.37.78h1.18l.33-.3v-.18l-.16-.15h.16a1.38,1.38,0,0,1,1.56-1.06l.33.31v.15l-.5.45.33.48,1-.33h.17l.17.15v-.15a1.45,1.45,0,0,0,1.18.48v.76l.37.3h.5v-.15l.51-.76-.17-.78c-.22,0-.34.16-.34.48l-.87-.18v-.15c1.14-.38,1.72-.68,1.72-.9a1.66,1.66,0,0,1-1-.79l-.16.18h-.17l-.17-.18h-.37l-.34,1.09h-.17c0-.61-.11-.91-.33-.91H181v-.33l.54-.15v.15l.34-.3V365h-6.68l-.88.75h-.17v-.15l.17-.15v-.15L174,365h-3.77c-.23,0-.34.15-.34.45h-.17q0-.45-.33-.45H159.27l-.54.3h-.5l-.51-.3h-.17v1.08l-1-1.08h-3.07c-.23,0-.34.2-.34.6h-.17v-.3Zm31.39,0,1.18.15.87-.15V365h-1.71Zm-32.61,0-.33-.3H150l-.17.15.34.3h.17Zm-.33-.92.4.38c.29-.15.45-.26.68-.38Zm-1.32,1.13v-.75l-.33-.33-.34.33v.75l.34.3Zm53.24,8.09h.33v.63h-.33Zm9.27.15v-.3l.71-.15v.3Zm1-.45V373c.34,0,.51-.31.51-.94h.34l-.51,1.24Zm9.95-1.09-.34-.3.17-.15h.17Zm0-.6v-.15l.34-.3h.54l-.71.45Zm-5.16-.6v-.63h.17l.54.48V371Zm3.1-.79v-.6l.51-.48H221q-.16,1.08-.51,1.08Zm2.06-.3v-.3l.51.15v.15Zm-.34-2.14-.33-.33.33-.3Zm-2.39-1.38H220v.45h-.34Zm2.56.45v-.3h.51l-.34.3Zm-28.62,4h.84v.3l-.33.33v.15h.33v1a1.75,1.75,0,0,0-.5-.37c-.05-.92-.27-1.38-.68-1.38v-.31h.34Zm-2.93-.61h-.51v-.3h.51Zm1.72.15V370h.17l.33.3v.15Zm-1.18-.15h.17l.33.3v.16l-.17.15-.33-.31Zm-9.11,1.39-.16.6c.08.3.42.46,1,.46l-.34.3h-.34l-.33-.3-.51-2.15h.51Zm1.72.9-.5.16v-.31h.5Zm1.18-.6h-.17l-.84.45V372c.45,0,.68-.1.68-.3H185Zm0,.91c.48,0,.71-.26.71-.76v-.3l-.17-.15.51-.48h.17l.17.15a4.33,4.33,0,0,1-1.19,2H185Zm3.44,0h-.17q0,.48-.33.48h-.17l.5-1.54-.17-.15.17-.78h.68l.17.45-.34.33v.9l1,1.54v.3l-.17.15-.54-.15v-.9Zm-3.44.63.37.3-.37.3Zm-6.17.15.37.3V374l-.54.15h-.16v-.3Zm12.71.3v-.15l-.7-1.39v-.15h.54v.3l.84-.15v.31h-.34v.48l-.17.75Zm4.59-.29a1.54,1.54,0,0,1-.54.68l-.27-.24h0a.54.54,0,0,0,.55-.36l.26-.08m6-2.59c.42,0,.72-.31.87-.94h.17v.79l-.87.3h-.17Zm15.81.45v-.15h.34v.45Zm-14.43.9.34-.6h.33v.6l-.67.19Zm-12-3.68H192v.3h-.51Zm.51-.15-.17-.76v-.18h.34l.34.94Zm-14.23,4.43v-.61l.51-.15h.17v.15l-.34.61Zm18,1.84h.86l.14,0v0h.12l.05,0h5.66l.2-.15.17.15H223.9l.34-.3v-.94h-.51v-.3q.51,0,.51-.3v-4.92h-.51v-.3h.51v-2.47l-.34-.3H193.39v.6q.51,0,.51.63h.5v2.39l-.33-.09-.17.6h-.34a1.42,1.42,0,0,0-.54-.91v-.15l1-.15-.17-.78v-.45l.17-.15-.17-.16-.17.16c-.47,0-.71-.27-.71-.79h-.17l-.5.48v.15l.17.16c-.23,0-.34.15-.34.45H192l-.34-.3-1.55.3c0-.18-.22-.28-.67-.3v-.15h.34l.84.15v-.94l-.51-.6c-.69,0-1.1.41-1.21,1.23h.37v.16h-.2c-.45-.06-.68-.48-.68-1.24h.51V365h-.68v.3L187,365h-1.35v.6h.17c.56.82,1,1.24,1.38,1.24l1.18-.3v.75l-.17.15a1.77,1.77,0,0,0,1.05.63v.3H187.9a3,3,0,0,0-1.22,2h-.33l-.34-.93v-.3h.17l.17.15.33-.3v-.15H186v-.3l1-.31.37.31.51-.46v-.48a1.07,1.07,0,0,1-1.05-.6h-.17l-.17.15h-.67v-.45H185l.2.6h.34V367h.17v.3l-.17.78h.34v.3h-.51c-.24,0-.37-.15-.37-.45h-.33l.16.15-.33,1.36v.18l.17.15c-.68,0-1,.3-1,.91h-.33c0-.31-.13-.46-.37-.46h-1v-.78l.16-.15-.33-.3a1.45,1.45,0,0,0-1.22.78h-.17c0-.64.41-1.05,1.22-1.23l-.17-.46h-.71c-.22,0-.34.15-.34.46l-.84-.16h-.71v1.54h.37l-.37.6,1.05.31v.3l-.17.15h.51l.16.63.51.45h.37l.17-.15v.15l.17.15-1.05.16c0,.42-.17.63-.5.63v-.15l-.17-.18V372h-.68V370.8c-.58,0-.87-.2-.87-.61l-1,.3-.17-.45h-.2c-.81,0-1.32.25-1.52.76v.45l.34.33h.5l.17-.15v.15l.17.15-.84.15c-.23,0-.34-.15-.34-.45h-.71l-.34.3v.75c0,.31.29.46.88.46v.18c-.59,0-.88.1-.88.3v.45l.34.45.17-.15c.81,0,1.21.2,1.21.61h8.23c.22,0,.34-.16.34-.46H185v.46H187l.54-1.21h.17v.15l-.17,1.06h5.29c.25-.61.49-.91.71-.91h.34l.33.3c0,.2-.33.3-1,.3v.31h1.18v0h1.18Z" transform="translate(-148.18 -364.36)"/><path class="cls-1" d="M185.28,475.35l-.19.77h.52l.32-.31v-.15c-.22-1.05-.43-1.57-.65-1.57Zm-10.58-.65h-.16l-.16.16c0,.32-.11.49-.32.49h-.48l-.17-.19v.34h1.29Zm-1,0,.48-.46-.16-.8.16-.15h-.48l-.16.15Zm1.8-1.87h.16l.49.3-.16.8h.16c.19,0,.36-.31.51-.95l-.51-.31H174.7V473Zm-14-.16.16-.49h-.33l-.19.15-.16-.15h-.16v.15l.32.34Zm20.41-.15h.36v-.95H182ZM158.58,472v-.46l.16-.8h-.52l-.16.15-.16-.15v.33l.16.16-.16.15v.16l.52.46Zm.48-1.42c.78,0,1.16.22,1.16.65l1,.31c0-.74.33-1.11,1-1.11a1.14,1.14,0,0,1,.84,1.11h.16v-.8c-1.33-.62-2-1.35-2-2.19h-.32v.62c0,.53.17.8.51.8v.3l-.35.31h-.81l-.16-.15v-.16l.16-.15h-1ZM156.58,469h-.16l-.16-.15v.61l.83.34h.17v-.15l-.33-.8h-.19Zm-3.77,1.11L153,470l-.16-1.42-.52.46v1.11Zm-2.17,0,.36-.31v-.34l-.68.5v.15Zm40.58-.95v.3h.48v-.61h-.16Zm11.18-1.42c.15.84.38,1.26.67,1.26v-.46Zm2.9.46a1.5,1.5,0,0,1-.5,1v.15l.88.46.5-.46v-.15a1.25,1.25,0,0,1-.67-1Zm2.44,1.42-.88.34v.46l-.17.77h-.34l-.5-.46-1,.15v.31c.22,0,.33.16.33.49h.17v-.34h.21l.84.16c.23.63.45.95.68.95h.2l-.2-.62v-.15l.2-.18c.45,0,.68-.11.68-.31h1v-.16l-.84-.15.17-.77V470l-.34-.34Zm5.34,1.26.34-.31v-.31l-.34.31Zm3.08-.92v.46l.37-.31v-.49Zm-3.79,0v-.5c0-.51.3-.76.88-.76v-.16c-.34,0-.5-.16-.5-.49h-.55l-.16.15.16.5c0,.2-.22.3-.67.3a1.73,1.73,0,0,0,.84,1m7.95.3v-.15H220v.46Zm2.4-.64-.33.64.67.16.17-.46Zm-6.56,1.11c-.22,0-.34.15-.34.46h-.33v.15h.16l.51-.15Zm5.55.3v.8h.34v-.49Zm-1.73.65v-.34h-.17l-.54.8h.34c0-.31.13-.46.37-.46m.85,1.08c0,.43-.17.64-.51.64H220l-.54-.34h-.17c0,.23.34.44.88.65l.85-.15v-.8Zm-10.69.49H210v.46l.17.15c.34,0,.51.16.51.47H211c-.41-.72-.7-1.08-.88-1.08m1.39.92-.17.46h.17l.17.19v-.65Zm2.4.31c-.45,0-.85.47-1.18,1.41h.67c0-.8.23-1.22.68-1.26v-.15Zm8.79.49h.34v-.49h-.34Zm-13.59.77c.15,0,.32-.21.5-.62h-.33Zm-1.56-.15c.23-.74.56-1.11,1-1.11v-.46h-.68l.17.46-.85,1v.16ZM211,473a1.66,1.66,0,0,1,1.35-.77v-.31c-.45,0-.67-.21-.67-.64h-.17c-.23,0-.4.57-.51,1.72M210,471.72l-.67.61.5.16v-.16l.17-.15Zm-3.45,2-1.22-1.57h-.17v.31c-.56.14-.84.3-.84.46a1.9,1.9,0,0,1,1.56.8Zm-4.84-.31a2.28,2.28,0,0,1-.84,1.72l.17.16c.36-.12.71-.65,1.05-1.57Zm-4.46,2.8h-1.39v0l.17.23.71.23.51-.15Zm3.45.34-.88.31V477l.88.16.17-.62Zm2.74-4.55v-.49h-.68v.33l.51.16Zm-8.58,3.63v-.16h-1l-.32.31.67.15Zm-.48.46h-.17l-.35.31H194Zm7.33-5.2h.72l-.34-.31h-.38Zm-.84-1.88h.85v-.3h-.85Zm-22.49.46v-.15h-.16l-.33.34v.15H178Zm16.48.34v.62H195c.18,0,.35-.23.52-.51v-.32l-.36-.13Zm-10.06,1.73h.16l.35-1.27-.35-.46-1.13.46v.16c.37,0,.69.37,1,1.11m-1.81-.8v.33c.17,0,.33-.21.48-.64v-.16Zm-1.48-.62H181l.33.31h.16Zm-16.32.77-.81-.46h-.19v.15l1,1.11Zm15.83.49-.51-.64v-.16l.16-.15a1.75,1.75,0,0,1-1.13-.31h-.16v.46l1.13.8Zm12.52,2,.32.31a2.18,2.18,0,0,1,.68-1.23v-.19c-.39,0-.72-.35-1-1.07l-.33.31.33.46Zm-8.9-.46h-.17l-.16.15.33.31Zm4,.46.33-.31V473l-.33-.31h-.51v.16c.34,0,.51.2.51.61m2.65.65.16.92c0,.33-.33.49-1,.49a.87.87,0,0,0,.64.62c0-.19.23-.29.68-.31v-.15l-.16-.16v-.15c.22,0,.43-.27.64-.8l-.32-.8h-.16c0,.22-.16.34-.48.34m-8.42.46a1.11,1.11,0,0,0,1-.62h-.36l-.8.31v.16Zm-1,.31.32.3h.52V475l-.32-.31h-.52Zm-3.94-.16h0l-.51-.46H177v.92l.64-.46h.19v.3H178v-.15l-.17-.15Zm11.87,2.06.17-.18-.17-.46h-.51v.15l.32.49Zm-24.57.16v.15l.32.31v-.46Zm-7.74-8.49.32-.34-.81-.15v.49Zm48.43,7.81-.17,1h.5v-1Zm8.62.15-.71.19V477l.71-.15Zm-36.28-1h-.84v.77a2.58,2.58,0,0,1-2,.8v.46h.16l.16-.16v.31h-1.48l-.64-.61h-.17l-.19.15v.15l.19.16v.15H151.32l-.16-.46c-.56,0-.84-.1-.84-.31v-.33l.32-.47v-.15h-.16l-.48.31h-.16v-3.94L150,472l-.16-.16v-4.09l.32-.31H153v1h.16l.16-.15h.32l.52.3h.16l-.32-.49v-.31l.32-.31h12.35l-.16.47.32.34h.33v-.81h9.06l.35.31v.31l-1.64.34-.2-.15c-.15.51-.36.76-.64.76v.16h.48l.52-.31h1l.51.31.49-.31c0-.94.1-1.42.32-1.42h16.48v.31l-.81.16h-.51l.19.8h-.52l.33.3h.19c0-.41.93-.93,2.77-1.57h8.31l.85.47.5-.16h.17l.21.16v-.47h1.35l.37.31v.46l-.2.19c1.26,0,1.89.2,1.89.61l.71-.15.34.31v1.1h.34c0,.41.11.62.34.62v-1.26l.2-.77h-.2l-.34-.95v-.16l.34-.31h6.56v.31h-.85v.31l1,.34.34.77.17.15v-.46l-.34-.46v-.65l.34-.31h1.21l.17.16c0,.31.18.46.54.46l1-.62h1.56v.31h.84l.54-.31h.17l.34.31v.65h-.34v-.34h-.17v1h.51v1.88h-.85v.15l.85,1v.77q0,.3-.51.3v1c.34,0,.51.1.51.31v1.1l-.34.31.34.46v1l-.34.3h-1.39V477c.46,0,.68-.32.68-1v-.16l-.51.16-1-.77h-.2l.88.92v.34l-.51.46h-.17l-.88-.15q-.24-1-.51-1h-.17l.51,1c0,.2.28.31.85.31v.3H216.7l.17-.46-.34-.31c0,.31-.23.57-.71.77h-7.57v-.3h.67v-.81l-1.35,1.11h-2.06c-.59-.3-.88-.67-.88-1.11-.23,0-.34.17-.34.5h-.88l-.34-.31v-.95h1.05c.23,0,.34.15.34.46l.51-.31a1.49,1.49,0,0,1-.85-1.26h-.34v-.92l-.17-.16-.54.31.34.46v.8c0,.2-.34.31-1,.31,0,.41-.24.61-.72.61l.55.8v.77H196l0,0H177.51l.16-.77c.88-.26,1.32-.48,1.32-.64v-.31c-.53,0-.8-.15-.8-.46" transform="translate(-148.18 -364.36)"/><path class="cls-1" d="M347.42,469.66l.55-.77h-1.45l-.91.31v.15c.6,1,1.21,1.57,1.81,1.57Zm29.75.64h.45l.46-.15c0-.33.3-.49.91-.49h1.36l.45.18v-.34h-3.63Zm2.72,0-1.36.47.46.8-.46.15h1.36l.46-.15Zm-5.08,1.88h-.45l-1.36-.31.45-.8H373a1.78,1.78,0,0,0-1.45,1l1.45.3h4.17V472Zm39.37.15-.46.5h.91l.54-.16.46.16h.45v-.16l-.91-.34Zm-57.41.16h-1v.95h1Zm65.75.49v.46l-.45.8h1.45l.45-.15.45.15v-.34l-.45-.15.45-.15v-.16L423,473Zm-1.36,1.42c-2.18,0-3.27-.22-3.27-.65l-2.72-.31c0,.74-.93,1.11-2.81,1.11-1.57-.23-2.36-.6-2.36-1.11h-.45v.8c3.75.62,5.62,1.34,5.62,2.19h.91v-.62c0-.53-.48-.8-1.45-.8v-.31l1-.3h2.26l.46.15v.15l-.46.16h2.82Zm7,1.56h.46l.45.16v-.62l-2.36-.34h-.45v.16l.9.8h.55Zm10.61-1.1-.45.15.45,1.42,1.45-.47v-1.1Zm6.08,0-1,.3v.34l1.91-.49v-.15Zm-114.09.95v-.31h-1.36v.62h.45Zm-31.44,1.41a2.06,2.06,0,0,0-1.9-1.26v.47Zm-8.18-.46c0-.28.48-.6,1.43-.95v-.15l-2.47-.47-1.43.47v.15c1.27.31,1.9.63,1.9.95Zm-6.84-1.41,2.47-.34v-.46l.48-.77h.95l1.42.46,2.95-.15v-.31c-.63,0-.95-.16-.95-.49h-.48v.34h-.57l-2.37-.16a2.77,2.77,0,0,0-1.91-1h-.57l.57.61v.16l-.57.18c-1.27,0-1.9.11-1.9.31H281v.15l2.38.16-.48.77V475l.95.34Zm-15-1.26-.95.31v.3l.95-.3Zm-8.66.92v-.46l-1,.31v.49Zm10.66,0v.49c0,.52-.83.77-2.48.77v.16c1,0,1.43.16,1.43.49h1.52l.48-.16-.48-.49c0-.2.63-.31,1.9-.31a4.64,4.64,0,0,0-2.37-.95m-22.36-.31v.16h1v-.46Zm-6.75.65,1-.65-1.9-.15-.48.46Zm18.45-1.11c.64,0,1-.15,1-.46h.95v-.15H262l-1.43.15Zm-15.6-.31v-.8h-1v.5Zm4.85-.64v.34h.48l1.52-.8h-1c0,.3-.35.46-1,.46m-2.37-1.08c0-.43.47-.64,1.42-.64h1l1.53.33h.47c-.13-.22-1-.44-2.47-.64l-2.38.15v.8Zm30-.49H278v-.46l-.48-.16c-.95,0-1.42-.15-1.42-.46h-1.05a5.69,5.69,0,0,0,2.47,1.08m-3.9-.92.48-.46h-.48l-.47-.19v.65Zm-6.75-.31a4.59,4.59,0,0,0,3.33-1.41h-1.9c0,.79-.64,1.21-1.91,1.26v.15ZM242.14,470h-.95v.49h.95Zm38.24-.77a2.32,2.32,0,0,0-1.43.61h.95Zm4.37.15a3.54,3.54,0,0,1-2.85,1.11V471h1.9l-.47-.46,2.37-.95v-.16Zm-9.7,2.68a8.83,8.83,0,0,1-3.8.77v.3c1.26,0,1.9.22,1.9.65h.47c.64,0,1.11-.57,1.43-1.72m2.95,1.23,1.9-.62-1.43-.15v.15l-.47.16Zm9.7-2,3.42,1.57h.48v-.31c1.58-.14,2.38-.3,2.38-.46a10.42,10.42,0,0,1-4.38-.8Zm13.6.31c0-.64.79-1.21,2.38-1.73l-.48-.15a5.21,5.21,0,0,0-2.95,1.57Zm12.56-2.8h3.91v0l-.49-.24-2-.23-1.42.16Zm-9.7-.34,2.47-.31V468l-2.47-.16-.48.62ZM296.45,473v.49h1.9v-.34l-1.42-.15Zm24.13-3.63v.15h2.81l.91-.3-1.91-.16Zm1.36-.46h.45l1-.31h-.45Zm-20.64,5.2h-2l.95.31h1.05Zm2.38,1.87H301.3v.31h2.38Zm63.24-.46v.16h.46l.9-.34v-.16h-.45Zm-46.34-.34v-.61h-.46a3.29,3.29,0,0,0-1.46.51v.31l1,.13Zm28.3-1.72h-.46l-1,1.26,1,.46,3.18-.46v-.15a3.84,3.84,0,0,1-2.72-1.11m5.07.8v-.34a1.92,1.92,0,0,0-1.36.65v.15Zm4.18.62h1.36l-.91-.31h-.45Zm45.89-.77,2.27.46h.54v-.15L404,473.29Zm-44.53-.49,1.45.64v.16l-.46.15a12.24,12.24,0,0,1,3.18.31h.45v-.46l-3.17-.8Zm-35.19-2-.91-.31c0,.31-.64.72-1.9,1.23v.18a4,4,0,0,1,2.81,1.08l.9-.31-.9-.46Zm25,.46h.45l.46-.16-.91-.3Zm-11.16-.46-.9.3V472l.9.3h1.45v-.15c-1,0-1.45-.2-1.45-.61m-7.43-.65-.46-.92c0-.33.94-.5,2.82-.5a2.91,2.91,0,0,0-1.82-.61c0,.19-.63.29-1.9.31v.15l.45.15v.16a2.75,2.75,0,0,0-1.81.8l.9.8h.46c0-.23.45-.34,1.36-.34m23.67-.46a5.35,5.35,0,0,0-2.81.61h1l2.27-.3v-.16Zm2.81-.31-.91-.31h-1.45V470l.91.3h1.45Zm11.06.15h0l1.43.47h.9v-.93l-1.81.46h-.55V470h-.45v.15l.45.15Zm-33.37-2.06-.45.19.45.46h1.45v-.15l-.91-.5Zm69.11-.15v-.15l-.91-.31v.46Zm21.76,8.49-.9.34,2.26.15v-.49ZM289.6,468.77l.48-1h-1.43v1Zm-24.25-.16,2-.18V468l-2,.15Zm102,1.05h2.36v-.77a15.79,15.79,0,0,1,5.53-.8v-.46h-.46l-.45.15v-.31h4.17l1.82.62h.45l.54-.15v-.16l-.54-.15v-.16h62.13l.45.47c1.57,0,2.36.1,2.36.3v.34l-.91.46v.16h.45l1.36-.31h.46v3.94l-.46.15.46.15v4.09l-.91.31H438.3v-.95h-.45l-.46.15h-.9l-1.45-.3h-.46l.91.49v.3l-.91.31H399.85l.45-.46-.91-.34h-.9v.8H373l-1-.31v-.3l4.63-.34.54.15A2.23,2.23,0,0,1,379,476v-.15h-1.37l-1.45.31h-2.72l-1.45-.31-1.36.31q0,1.41-.9,1.41H323.39v-.31l2.27-.15h1.45l-.54-.8H328l-.91-.31h-.54c0,.41-2.61.94-7.8,1.57H295.4l-2.37-.46-1.43.15h-.48l-.57-.15v.46h-3.8l-1.05-.31v-.46l.57-.18c-3.55,0-5.32-.21-5.32-.62l-2,.16-.95-.31V474.7h-.95c0-.41-.32-.61-.95-.61v1.26l-.57.77h.57l.95.95v.15l-.95.31H257.64v-.31H260v-.3l-2.85-.34-.95-.77-.48-.15v.46l.95.46v.64l-.95.31h-3.42l-.48-.15c0-.31-.51-.46-1.52-.46l-2.85.61h-4.38v-.31h-2.38l-1.52.31h-.47l-1-.31v-.64h1v.34h.47v-1h-1.43v-1.87h2.38v-.16l-2.38-.95v-.77c0-.2.48-.31,1.43-.31V471c-.95,0-1.43-.1-1.43-.31v-1.1l1-.31-1-.46v-1l1-.3h3.9V468c-1.27,0-1.91.32-1.91.95v.16l1.43-.16,2.85.77h.57l-2.47-.92v-.34l1.43-.46H245l2.48.15a1.8,1.8,0,0,0,1.42,1h.48l-1.43-1c0-.2-.79-.31-2.38-.31v-.3h13.51l-.48.46,1,.3c0-.3.66-.56,2-.76h21.31v.3H281v.8l3.8-1.1h5.8c1.65.3,2.48.67,2.48,1.1.63,0,1-.16,1-.49h2.47l.95.31v.95h-2.95c-.63,0-.95-.15-.95-.46l-1.42.31q2.37.52,2.37,1.26h.95v.92l.48.16,1.52-.31-.95-.46V470c0-.21.95-.31,2.85-.31,0-.41.67-.61,2-.61l-1.52-.81v-.76h17.44l.09,0h52l-.45.77c-2.48.27-3.72.49-3.72.65v.31c1.51,0,2.27.15,2.27.46" transform="translate(-148.18 -364.36)"/><path class="cls-2" d="M389.49,448.82l4.93-13.24,5.05,13.24Zm15.79,2.94-8.6-22.95h-4.42l-8.68,23v9.61h4.49v-8.09H400.8v8.09h4.48Zm-39.34,9.64h8.9l1.27-.15a5.45,5.45,0,0,0,3.31-1.69,6.49,6.49,0,0,0,1.83-3.31V452.5h-4.49V455l-.08.77a1.79,1.79,0,0,1-1,1l-.74.15h-9l-.74-.15a1.57,1.57,0,0,1-1-1L364,455V435.14l.07-.67a1.81,1.81,0,0,1,1-1l.74-.14h9l.74.14a2.12,2.12,0,0,1,1,1l.08.67v2.5h4.49v-3.72a6.47,6.47,0,0,0-1.83-3.29,5.54,5.54,0,0,0-3.31-1.68l-1.27-.14h-8.9l-1.26.14a5.52,5.52,0,0,0-3.32,1.69,6.54,6.54,0,0,0-1.82,3.31v22.31a6.54,6.54,0,0,0,1.82,3.31,5.46,5.46,0,0,0,3.32,1.68Zm-10.5,0H351V428.81h4.49Zm-25.22-18.54V433.3H341l.66.07a1.79,1.79,0,0,1,1,1l.15.67V441l-.15.66a1.76,1.76,0,0,1-1,1l-.66.15Zm17.15,18.54-6.18-14,1.09-.07q4.43-1,4.94-5.08l.15-1.18v-5.88l-.15-1.18c-.34-2.75-2-4.44-5-5.08l-16.49-.07V461.4h4.48v-14h6.06l6.18,14Zm-40.6,0v-14h12.66v-4.49H306.77V433.3H324v-4.49H302.28V461.4Zm-23.94-12.58,4.93-13.24,5.05,13.24Zm15.79,2.94L290,428.81H285.6l-8.68,23v9.61h4.49v-8.09h12.73v8.09h4.48Z" transform="translate(-148.18 -364.36)"/><path class="cls-3" d="M444.14,413v-4.49H426.92V399h12.65v-4.49H426.92v-9.57h17.22v-4.49H422.43V413Zm-40.2,0h8.9l1.27-.15a5.44,5.44,0,0,0,3.31-1.72,6.63,6.63,0,0,0,1.82-3.34V394.48H408.35V399h6.4v7.72l-.07.66a1.79,1.79,0,0,1-1,1l-.75.15h-9l-.75-.15a1.79,1.79,0,0,1-1-1l-.07-.66V386.75l.07-.69a1.85,1.85,0,0,1,1.07-1.07l.77-.08h8.9l.77.08a1.85,1.85,0,0,1,1.07,1.07l.07.69v2.5h4.49v-3.68a6.46,6.46,0,0,0-5.11-5.07l-10.22-.08-1.26.08a4.69,4.69,0,0,0-3.22,1.69,6.94,6.94,0,0,0-1.89,3.37v22.25a6.71,6.71,0,0,0,1.82,3.34,5.44,5.44,0,0,0,3.31,1.72Zm-27.4-4.49V384.91h10.82l.83.08a1.42,1.42,0,0,1,1.08,1v20.66l-.15.67a1.35,1.35,0,0,1-1,1l-.74.15Zm12.1,4.34a6.42,6.42,0,0,0,5.12-5.06V386.74l-.15-1.18a5.9,5.9,0,0,0-1.76-3.37,4.79,4.79,0,0,0-3.24-1.69l-16.55-.08V413h15.3Zm-20.58.15h-4.49v-32.6h4.49Zm-25.19-18.54v-9.57h10.81l.67.08a1.77,1.77,0,0,1,1,1l.14.67v5.94l-.14.66a1.79,1.79,0,0,1-1,1l-.67.15ZM360,413l-6.18-14,1.09-.08q4.44-1,4.95-5.08l.14-1.17v-5.89l-.15-1.18q-.51-4.11-5-5.07l-16.5-.08V413h4.49V399h6.06l6.18,14Zm-42.48-18.54v-9.57h10.82l.66.08a1.77,1.77,0,0,1,1,1l.15.75v5.86l-.15.66a1.79,1.79,0,0,1-1,1l-.59.15H317.53Zm0,14V399h10.89l.59.14a1.8,1.8,0,0,1,1,1l.15.66v5.89l-.15.66a1.77,1.77,0,0,1-1,1l-.66.15Zm12.05,4.34a5.39,5.39,0,0,0,3.24-1.74,5.68,5.68,0,0,0,1.71-3.28l.15-1.16V400.8l-.14-1.17a5,5,0,0,0-1.06-2.58l-.28-.37.28-.29a4.44,4.44,0,0,0,1.06-2.58l.14-1.17v-5.81l-.15-1.26a5.43,5.43,0,0,0-1.69-3.27,6.36,6.36,0,0,0-3.3-1.8l-16.5-.08V413h15.31Zm-20.46.15v-32.6h-4.44L298.26,399l-6.35-18.53h-4.49V413h4.48V394.26l6.33,18.46,6.4-18.46V413ZM268,400.44l4.93-13.25L278,400.44Zm15.79,2.94-8.6-23h-4.42l-8.68,23V413h4.49v-8.1H279.3V413h4.48ZM244.47,413h8.9l1.27-.15a5.5,5.5,0,0,0,3.31-1.69,6.43,6.43,0,0,0,1.82-3.31v-3.75h-4.48v2.5l-.08.76a1.84,1.84,0,0,1-1,1l-.75.15h-9l-.75-.15a1.62,1.62,0,0,1-1-1l-.07-.76V386.75l.07-.66a1.82,1.82,0,0,1,1-1l.75-.15h9l.75.15a2.12,2.12,0,0,1,1,1l.08.66v2.5h4.48v-3.72a6.35,6.35,0,0,0-1.82-3.28,5.54,5.54,0,0,0-3.31-1.68l-1.27-.15h-8.9l-1.27.15a5.5,5.5,0,0,0-3.31,1.69,6.48,6.48,0,0,0-1.82,3.3v22.32a6.48,6.48,0,0,0,1.82,3.3,5.5,5.5,0,0,0,3.31,1.69Z" transform="translate(-148.18 -364.36)"/><path class="cls-2" d="M443.75,364.74l.57-.38h-1.51c.31.12.54.23.94.38m2.4.75.47.3.48-.3v-.75l-.48-.33-.47.33Zm-1.83-.06.47-.3-.24-.15h-.23l-.47.3.23.15Zm-4.8,2.92v.46h1.22l.47-.3-1.46-.31Zm-10.78,6.27a3.86,3.86,0,0,0-1.65-.6v.3h-.23v-.45l.23-.15h.71c0,.3.31.45.94.45Zm12.47-.75.71-.45h.23v.15c-.15.6-.39.9-.7.9h-.24Zm-8.14,0h-1.46l-.23-.45c.81,0,1.22-.26,1.22-.79h.23Zm-6.73-1.54-.23.94h-1.18l-.47-2h.47l.23.93h.24a3.75,3.75,0,0,0,1.69-.45h.24v.3q0,.3-1,.3M422.06,371l-.71.48h-.23v-.18l.47-.91h.47Zm-2.4.48h.7v.15l-.23.45h-.47Zm-5-1.09,1,.61h.24l.23-.15.24.15h.23l1.18-.15v.3l-1.88.15.23.18v.3h-.23q0-.3-1.23-.3c-.09-.52-.33-.78-.7-.78l-1.93.6v-.45h.51v-.46l-.28-.15V370l-1.18.15h-.23v-.3l1.41-.15-.23-.15v-.18l.75-.15V368.2h.94v-.63h-.47v.33H413l-.75-.15v.15c0,.24-.55.44-1.65.61v-.61l1.93-.78v.45h.24l.23-.75h.48v.3h.94l1.22.15.47-.91h-.23l.23-.78h.24l.23.15h.24l-.47,1.54h.47v.3h-1.7v.78l-.94-.15-.7.15v1.06l.7.48.24-.15h.47l.52.3h-.76Zm1.23-.93-.24-.9c.79,0,1.18-.11,1.18-.31l-.24-.45a3.75,3.75,0,0,0,1.7.3v.3c0,.19-.41.34-1.23.46l-.23-.15-.47.6h.47v.15Zm9.55-.6v-.15l.24-.46h.23v.61Zm-7.91-2.29v-.16l.76-.45h.47l.23.45-.23.16Zm6.5-.31.23-.15h.24v.15h-.24l.24.15v.31h-.24Zm.47.61h.23l.71.45h-.24Zm-2.64.93h-.23l-.47-.33.23-.75-.23-.15h.47l.7.45Zm5,.15.47-1.38-.47-.31v-.48h.47v.33l.23-.15h.24l.71.15v-.15l.23-.48H429v.48a2,2,0,0,0-1.65,2Zm6.21-.33v-.75l.47.3-.23.45Zm2.4-.15-.23-.6h.23l.47.3Zm-5-.15-.24-.15.71-.6h.94Zm4-.6v.15H434l-.23-.15v-.31H434Zm5.51-.15a3.3,3.3,0,0,0-1.65-.31v-.15c.47,0,.71-.16.71-.48l.47.33.23-.18h.47v.79Zm-35.63-.79v.18l-.75.3-.24-.15v-.33l.76-.15Zm2.36.63v-.15l.28-.15h.7l-.7.46Zm16,6.43,1-.16v.31h-1Zm-5.27-.31.47.31h-.7v-.31Zm3.11.46,1.69.18v.45q-1.17,0-1.17.75a1.85,1.85,0,0,1-1.46-.9l.7-.48Zm-3.81.33c0,.14-.32.29-.94.45v-.45Zm-5.51,1.2v.31h5.51l1.69-.16,2.12.16h15.81a4.09,4.09,0,0,0,1.93-.61h.47l-.23.15v.46h.23l.24-.16,1.17.16h3.11l1.46-.91v-.75l-.47-.49-.24.16h-.75l.52-.91h.47V371h-1l-.47.63v.15h-.24l-.47-.3v-.18a2.25,2.25,0,0,0,1.46-.91l-.28-.93q-1.65.18-1.65.48v.76c-.47,0-.7.26-.7.78l-1.46.6h-.24v-.6h-1.41v.6l1.18.91v.33h-.24c0-.52-.48-.79-1.46-.79h-.23c0,.43-.39.74-1.18.94v.15h.47v.3h-.7l-1.93-.3v-.3l1.46-.48.47.33,1.88-1.69-.24-.48h.24a1.48,1.48,0,0,0,1.46-1.21c-.72-.22-1.12-.53-1.18-.93h-.75l-.47.3v.15l.23.78-.23-.15h-.24l-1.41.3v-.78l.24.18h.47v-.48l-1-.3h-.24v-.15c1.13,0,1.7-.11,1.7-.31v-.3l-.24-.48h.24l1.41-.3-.24-.15V367l.52-.3c0,.72.32,1.08.94,1.08l1.18.15.23-1.23.24.15h1.69c0,.62.16.93.47.93h1.46v-.93c0-.18-.48-.33-1.46-.46,0-.72-.15-1.08-.47-1.08h-1.69v.3h-.24c0-.4-.15-.6-.47-.6h-4.28L434,366.06V365h-.23l-.71.3h-.7l-.76-.3H417.49c-.31,0-.47.15-.47.45h-.23c0-.3-.16-.45-.47-.45H411l-.47.3v.15l.24.15v.15h-.24l-1.22-.75H400v.3l.47.3v-.15l.76.15v.33H400c-.31,0-.47.3-.47.91h-.23l-.47-1.09h-.52l-.24.18h-.23l-.24-.18a2.3,2.3,0,0,1-1.41.79q0,.33,2.4.9v.15l-1.22.18a.42.42,0,0,0-.47-.48l-.24.78.71.76V369h.7l.52-.3v-.76a2.5,2.5,0,0,0,1.65-.48v.15l.23-.15h.24l1.46.33.47-.48-.71-.45v-.15l.47-.31c1.23,0,1.95.36,2.17,1.06h.23l-.23.15v.18l.47.3h1.65q0-.78.51-.78h.24a1.09,1.09,0,0,1,.94,1.08c-.94,0-1.41.1-1.41.31h.23l-.23.45h-.28q-.48,0-.48-.45l-.23-.15h-.71l-.7.3c0,.82.55,1.23,1.64,1.23q0-.3,1.23-.3v-.33h.7c1.48,1.35,2.36,2,2.64,2s.47.25.47.75l.24.15h1.22l1.18-.15v.15l-.47.79.23.15h-.47c-.31,0-.47-.21-.47-.64-.35,0-.52.27-.52.79H412l.51.9h-.28Zm-12.94-9.19-.47-.3h-2.4v.3l1.22.15Zm-17.37,9a1.78,1.78,0,0,1-.75-.68l.36.08a.8.8,0,0,0,.77.36h0Zm9.51-1.78v-.9l-.47-.33.23-.45h.94l.24.78-.24.15.71,1.54h-.23a.42.42,0,0,1-.48-.48H391l-.94.63v.9l-.76.15-.23-.15V374Zm5.27.94v.6l-.52-.3Zm8.85.75-.76-.15v-.15l.52-.3.47.3v.3Zm-9.13-.9a4.34,4.34,0,0,1-1.65-2l.24-.15h.23l.71.48-.24.15v.3c0,.5.33.76,1,.76v.48Zm1.93-.94h.7v.3l-.7-.15Zm-1.42-.45h-.23v-.15h.47c0,.2.31.3.94.3v.3Zm3.11,1.06-.47-.31q1.23,0,1.41-.45l-.23-.6.23-1.09h.71l-.71,2.14-.47.31Zm-12.47-2.14-.24-.15v-.16l.47-.3h.24v.3Zm1.22-.91h.71v.3h-.71Zm-41.41-.29v.6h-.23c-.32,0-.55-.36-.71-1.08h.24Zm-2.4-1.84v-.63l.47.3Zm-.47-.93-.47-.3h.71v.3Zm3.34-.45h.47v.45h-.47Zm-9.06-.34.73.46v1.08h-.73l-.22-.15Zm-5.28.46h.23l.22-.15v.6l-1.17.33h-.23v-.15l.45-.78h.27Zm-6-.46v.61q0,.78-.72.78v.3l.5.3h1.13l.22-.15v-.15l-.22-.15h1.4l.22.45q-1.62,0-1.62.63l-1.36.3c0-.72-.47-1.08-1.4-1.08q-1.17.33-1.17,1.08h-.23v-.78c1.87-.6,2.8-1.31,2.8-2.14Zm-42.49.61v.3h-.68v-.6h.23Zm-13.47-.15H269.4v-.3h1.19Zm-3.13,0V366l1-.78c-.22.82-.54,1.24-1,1.24m-3.13-.79c0,.28.24.6.71.94v.15l-1.23.45-.71-.45v-.15c.63-.3.95-.62.95-.94Zm-3.41,1.39,1.24.33v.45l.23.75h.48l.71-.45,1.46.15v.3c-.31,0-.47.16-.47.49h-.24v-.34h-.28l-1.18.15c-.32.63-.64.94-.95.94h-.29l.29-.6v-.15l-.29-.19c-.63,0-.94-.1-.94-.3h-1.42v-.15l1.18-.15-.24-.75v-.15l.48-.33Zm-7.48,1.23L253,368v-.3l.47.3Zm-4.31-.9v.45l-.52-.3v-.48Zm5.31,0V367c0-.5-.42-.75-1.24-.75V366c.48,0,.71-.16.71-.48h.76l.24.15-.24.49c0,.2.32.3,1,.3a2,2,0,0,1-1.18.93m-11.13.3v-.15h.47V368Zm-3.37-.63.48.63-.95.15-.24-.45Zm9.19,1.08c.32,0,.47.15.47.45h.48v.15h-.24l-.71-.15Zm-7.77.3v.79h-.47v-.49Zm2.42.64v-.34H244l.75.79h-.47c0-.3-.17-.45-.52-.45m-1.18,1.05c0,.42.23.63.71.63h.47l.76-.33h.23q-.09.33-1.23.63l-1.18-.15v-.78Zm15,.48h.24v.45l-.24.15c-.47,0-.71.15-.71.45h-.52q.85-1.05,1.23-1.05m-1.94.9.24.45h-.24l-.24.19v-.64Zm-3.36.3c.63,0,1.18.47,1.65,1.39H253c0-.78-.32-1.2-.95-1.24v-.15Zm-12.32.49h-.47v-.49h.47Zm19,.75c-.22,0-.46-.2-.71-.6h.48Zm2.18-.15a1.54,1.54,0,0,0-1.42-1.09v-.45h.95l-.24.45,1.18.94v.15Zm-4.83-2.62a2.69,2.69,0,0,0-1.89-.75v-.3c.63,0,.94-.22.94-.64h.24c.31,0,.55.56.71,1.69m1.47-1.2.95.6-.71.15v-.15l-.24-.15Zm4.83,2,1.7-1.53h.24v.3c.79.14,1.18.29,1.18.45a3.07,3.07,0,0,0-2.17.78Zm6.77-.3a2.11,2.11,0,0,0,1.19,1.69l-.24.15c-.51-.12-1-.64-1.47-1.54Zm13.3,1.08.46-.78h.22c0,.22.23.33.68.33l-.23.91c0,.32.47.48,1.4.48a1.13,1.13,0,0,1-.9.6c0-.18-.32-.28-.95-.3V373l.23-.15v-.15c-.3,0-.61-.26-.91-.79m-2.3.94.45.3-1,.15-.9-.3v-.15Zm-.5.6.5.3h-.23l-.49-.3Zm-2.3.12v0l-.24.23-1,.22-.71-.15v-.33Zm-6.78.33,1.23.3v.15l-1.23.15-.23-.6Zm15.32.18-.23-.18.23-.45h.72v.15l-.45.48Zm5.78-.63-.46-.3V373c.3-1,.61-1.54.91-1.54v1.24l.27.75ZM307.18,372h.23l.22.16q0,.48.45.48h.68l.23-.18v.33h-1.81Zm33.69,1.09H341a.6.6,0,0,0,.33.12l.26.12v.22h-.45l-.31-.31Zm-20.32,1.08v.15l-.45.3v-.45Zm51.3,0h-.47v-.63h.47Zm15.76-2v.15l-1,1.39v.15h-.24l-.23-.75v-.49h-.47v-.3l1.17.15v-.3Zm-3.39-1.69v.31c-.57,0-.88.46-.94,1.38a2.62,2.62,0,0,0-.7.37v-1H383v-.15l-.46-.33v-.3h1.17v-.31Zm-33.46-.14V371h-1v-.15l.76-.49Zm6.69,2.63v.3H357l-.71-1.24h.47c0,.63.24.94.71.94M344,371.89l-.47.3v-.45h.24Zm25.42-.15.47.6v.19l-.94-.19v-.6Zm-25.89-.3v.15h-.23l-1-.45h.75Zm6.21-.15v.15l-.47.3v-.45Zm8.15,2.29v-.3l1,.15v.3Zm-36-5.7V368l-1.4,1.09v-.79l1.13-.45Zm-21.27-.3V368l-1.58.78h-.73l.73-.63V368l-.23-.15a3.33,3.33,0,0,0,1.58-.3Zm-3,0h.67l-.45.3h-.22Zm-2.08.6v.33c-.24,0-.47-.21-.68-.63v-.15Zm1.4,1.72h-.5V369h.5Zm29.53-.33v.15l-.45.33h-.5l-.22-.48h.45l.27.15.23-.15Zm-33.23.78h.22l.23.15-.45.3Zm-5.56.45-.45-.3v-.15l.45-.3h.72v.15q-.72,0-.72.6m17.34.48q-.41,0-.72-.93l.72-.3h2.08v.3L306,370.2h-.23l-.68.3.23.78Zm3-.48-.22-.15h.67l.23.15-.23,1.23-.67-.45Zm-12.24,1.08a1.73,1.73,0,0,1-1.4-.6h.5l1.13.3v.15Zm1.4.31-.45.3h-.72v-.15l.45-.31h.72Zm5.51-.16h0l.71-.45h.45v.91L303,372h-.28v.3h-.22v-.15l.22-.15Zm-34.82-2.76-.71.15H267v-.49h.94Zm12.92-.61.45.3-.45.46v1.38l-.45.3c0-.3-.32-.7-.95-1.2v-.18c.54,0,1-.35,1.4-1.06m-11.45-.33h-1l.47-.3h.52Zm23.46-1.05,1.58.45v.15q-.76,0-1.35,1.08h-.23l-.49-1.23Zm9.22-.33v-.15h.22l.45.33v.15h-.22Zm-23.08.33v.6h-.23a1.26,1.26,0,0,1-.73-.5v-.31l.51-.12Zm51.48,1.05.23-.15v.33l-.23.15.23.15V369l-.72.46h-.23V369l-.23-.78h.73Zm10.45-1.1v.35h-.06l-.5-.3V367Zm1.93,2.52.7-.15v.3h-.7Zm41.88.59.47-.3h.23v.3l-.7.15Zm-12.89.65v.15h-.24l-1.22-.3v-.79h.23a1.23,1.23,0,0,0,1.23.94m33.45,1.95-.47-.61v-.15h.24l.7.15v.61Zm-19.39-4.28h.71v.3h-.71Zm-.7-.15.47-.94h.47v.18l-.24.76Zm-53.82-2.62-.46-.33,1.13-.15v.48Zm-67.81,7.65.23.93h-.71v-.93Zm-12.08.15,1,.18v.45l-1-.15Zm119.12,1.13.24-.15.28.15h7.91l.06,0h.17v0l.2,0h1.19l.26,0h1.65v0h1.64v-.31q-1.41,0-1.41-.3l.47-.3h.47c.31,0,.64.3,1,.91h7.38l-.23-1.06v-.15h.23l.76,1.21h2.87v-.46h.47a.42.42,0,0,0,.47.46h11.48c0-.41.57-.61,1.7-.61l.23.15.47-.45v-.45c0-.2-.4-.3-1.22-.3v-.18c.82,0,1.22-.15,1.22-.46v-.75l-.47-.3h-1c0,.3-.16.45-.47.45l-1.18-.15.23-.15v-.15l.24.15h.71l.47-.33v-.45c-.29-.51-1-.76-2.12-.76h-.28l-.24.45-1.41-.3c0,.4-.41.61-1.23.61V372h-.94v.91l-.23.18v.15c-.47,0-.71-.21-.71-.64l-1.46-.15.24-.15v-.15l.23.15h.52l.71-.45.23-.63h.71l-.24-.15v-.3l1.46-.31-.52-.6h.52v-1.54h-1l-1.17.16a.41.41,0,0,0-.47-.46h-1l-.24.46c1.13.18,1.7.59,1.7,1.23H402a2.2,2.2,0,0,0-1.69-.78l-.47.3.23.15v.78h-1.41c-.34,0-.52.15-.52.46h-.47c0-.61-.47-.91-1.41-.91l.24-.15v-.18l-.48-1.36.24-.15h-.47c0,.3-.17.45-.52.45h-.7v-.3H395l-.24-.78V367H395v.3h.47l.28-.6h-1.22v.45h-.95l-.23-.15h-.24a1.64,1.64,0,0,1-1.45.6v.48l.7.46.52-.31,1.41.31v.3h-.94V369l.47.3.24-.15h.23v.3l-.47.93h-.47c0-.58-.57-1.24-1.69-2h-1.93v-.3a2.77,2.77,0,0,0,1.45-.63l-.23-.15v-.75l1.65.3c.5,0,1.14-.42,1.93-1.24h.23V365h-1.88l-1.7.3V365h-.94v.3H391c0,.76-.31,1.18-.94,1.24h-.28v-.16h.51a1.48,1.48,0,0,0-1.69-1.23l-.71.6v.94l1.18-.15h.47v.15c-.63,0-.94.12-.94.3l-2.17-.3-.47.3h-.23c0-.3-.16-.45-.47-.45l.23-.16v-.15l-.7-.48h-.24c0,.52-.33.79-1,.79l-.23-.16-.24.16.24.15v.45l-.24.78,1.46.15v.15c-.5.35-.75.65-.75.91h-.47l-.24-.6-.46.09v-2.39h.7c0-.42.23-.63.7-.63V365H341.59l0,0h-3.93v.93h-.23l-.22-.15h-.46l-.72.3h-.22l.45-.48v-.3l-.45-.3h-17.3l.23.45-.46.33h-.45V365H305.1l-.49.3v.3l2.3.33.27-.15c.21.51.51.76.9.76v.15h-.67l-.73-.3h-1.35l-.72.3-.68-.3c0-.93-.15-1.39-.45-1.39H280.4v.3l1.13.15h.72l-.27.79h.72l-.45.3H282c0-.41-1.29-.92-3.88-1.54H266.47l-1.19.45-.71-.15h-.24l-.28.15V365h-1.89l-.53.3v.45l.29.18c-1.77,0-2.65.2-2.65.61l-1-.15-.47.3v1.08h-.48c0,.4-.15.6-.47.6V367.1l-.28-.75h.28l.47-.94v-.15l-.47-.3h-9.19v.3h1.19v.3l-1.42.33-.48.76-.23.15v-.45l.47-.46v-.63l-.47-.3H245l-.24.15q0,.45-.75.45l-1.42-.6h-2.18v.3h-1.19l-.76-.3h-.23l-.48.3v.63h.48v-.33h.23v.94h-.71v1.83H239v.15l-1.19.94v.75c0,.2.24.3.71.3v.93c-.47,0-.71.1-.71.3v1.09l.48.3-.48.45v.93l.48.3h1.94v-.45a.83.83,0,0,1-1-.93v-.15l.71.15,1.42-.75h.29l-1.23.9v.33l.71.45h.23l1.24-.15c.22-.62.45-.93.71-.93h.23l-.71.93c0,.2-.39.3-1.18.3v.3h6.72l-.23-.45.47-.3q0,.45,1,.75h10.61v-.3h-.94v-.78l1.89,1.08h2.89q1.23-.45,1.23-1.08a.42.42,0,0,1,.47.48H267l.47-.3v-.93H266c-.31,0-.47.15-.47.45l-.71-.3c.79-.34,1.18-.75,1.18-1.24h.48V371l.23-.15.76.3-.47.45v.79c0,.2.47.3,1.42.3q0,.6,1,.6l-.76.78v.75h8.69l0,0h25.88l-.22-.75q-1.86-.39-1.86-.63v-.3c.76,0,1.13-.15,1.13-.45h1.18v.75a4.46,4.46,0,0,0,2.75.78v.45H306l-.23-.15v.3h2.08l.9-.6H309l.27.15v.15l-.27.15v.15h30.93l.23-.45a4,4,0,0,0,.78-.06v.23l.47.3Z" transform="translate(-148.18 -364.36)"/><path class="cls-2" d="M222.56,409.79l-.21.06.27,0,.22,0Zm-3.14,30.51,0,.14v.13l.08-.19.07-.12.06-.18-.08.12h-.07ZM212.31,446l-.07.16,0,.13v.32l.27.33,0,.23,0,.15.14.08.07,0-.07.06-.21.05,0,.22,0,.33,0,.43.07.09v.14l.12.07.13.21.12.06.09.14.13.16.15-.05,0,.07.16,0,.17.23.13,0v.08l0,.06.13-.09.22,0,.25-.15.19-.23.65-.06.2.05.33-.14.1-.18.16,0,.11-.32.16-.27v-.18l.21-.13,0-.31-.05,0,.14-.11.09-.34,0-.06h.07l.19-.3.15-.7.11-.37.16-.16.08-.42.28-.49.27-.84.19-.28v-.38l.21-.37,0-.15.23-.37.12-.58.1-.42.09-.1.06-.31-.09-.15,0-.26.22-.29,0-.15.15-.17,0-.25-.08-.08.09-.18,0-.25-.07-.05v-.25l.14-.06.1.07,0,.22.18.23.12,0,.08-.13v-.18L220,439l0-.18.07-.07v-.21l-.2-.27,0-.19.06-.09v-.22l-.07-.28,0-.11,0-.53-.16-.2,0-.46-.07-.16-.08,0-.18-.23,0-.2-.18-.08.11-.21-.07-.21-.27.24.07.14-.18.12-.18-.11h-.11l.17.23v.13l.13.13v.06l-.21.19v.31l-.12.2-.14-.05-.17.19,0,.18-.13.09-.11-.07,0-.22-.09,0-.14.12,0,.25.21.2.05.09-.08.08-.1,0-.23,0,0,.2.2,0,0,.13-.09.11-.1-.11-.15,0,0,.12-.28.24v-.22l.05-.06-.07-.13-.19.19.12.06,0,.09-.24.14.1.19.13.05v.1l-.13,0-.16.12,0-.14-.09,0,.09-.16-.09-.06-.37.31-.06.3,0,.12,0,.13-.13-.05-.09-.07V439h-.1l-.24.25-.27-.19-.05.08-.09,0,0,.29-.08,0-.07,0v-.16l-.1-.05-.12.16-.1-.16-.41.37h-.11l-.08-.07h-.21l-.09.15,0,.32-.31.47v.09l-.29.31v.15l.16.13-.14.2.1.29v.25l.28.55,0,.15.18.2v.09l-.14.14,0,.14-.09.48-.21.13-.05.27-.13,0-.06.18-.18.15,0,.38-.13.14-.3.07-.07.1,0,.33-.22.24Zm6.21-10-.17.17.05.09.12-.19Zm-.12.61,0-.09,0,.06,0,.09Zm-.26.18.05-.19-.12-.07,0,0,0,0-.1.16H218Zm-1.88-4.25.2,0,0-.07-.09,0-.15-.06-.12.13Zm.23.24h-.07l0,.09Zm-1.68,3.16,0,.16,0,.19.07.09.19-.31-.12-.16Zm-.55-.3.08-.1-.1-.21-.08.08-.16,0,.13.07Zm-1.1-.66-.07-.2.08-.1-.09-.2-.12,0-.15.26.05.13,0,.24.1,0,.1,0Zm0,.53-.05.05.07.07.19,0-.1-.13ZM177.27,419l0,.15.19.11.2,0,.15-.4,0-.29-.07-.08-.22.23-.08.24Zm-1.85,3.18-.12.13,0,.19.08,0,.12-.08.07-.15ZM156,414.66l0,.07,0,.1.14.08h.09l0-.14-.08-.1Zm41.95,17.16.44-.38.17.08,0,.2-.29.46-.31.15-.19-.19Zm-.24,7.27h-.22l-.13,0-.31-.18-.27-.05.27-.05.13-.1.11.12.18.09.08.1Zm-.63-21.83-.08-.11-.19-.12.19.12Zm-.33,23.25.09-.14.45-.39,0-.23.23-.09.22,0,.16,0,.26.14v.09H198l-.07.21-.12-.15h-.1l-.17.23-.16-.07-.23.18-.06.19h-.18l-.11.12-.09.2-.09.07-.27.42-.18.11-.16,0v.16l-.08-.15h-.22l-.05-.1-.06-.11.33.12.28-.07.25-.34.13-.35ZM196.08,416l-.06-.08Zm-.39-.55-.08-.13-.33-.2h-.08l-.17-.08.17.08h.08l.33.2Zm-.76,33.08-.14.1-.21,0,.21,0Zm-.59-34.46-.16-.1H194l-.24-.1.24.1h.17Zm-.24-12.67-.45-10.18.36,8.16Zm0,39.51.14.18h0Zm-.29,14.18.39-.12.31-.15h.22l0,.15,0,.12-.31.06-.16.11h-.15l-.13,0-.13-.15Zm1.25-13.83.11-.08.22,0-.22,0Zm1.52,3,.05-.14Zm0,10.82,0-.07.07-.08-.07.08Zm.11-4.25.25,0,.29.14-.43.08Zm.19,2h0Zm.66,1.29.09.08Zm1.31-25.63v-.22l-.13-.09-.1-.58,0-.36-.18-.24.06-.7v-.26l.15-.2.11.51.29.37.14.34,0,.38.12.2-.06.17.15.44,0,.26-.15.2.06.33.3.07.1.18.28.18.14.39v.37l.18.27.26.65.14.3-.12.16-.33-.28-.22,0-.15-.12L200,431l-.12-.43-.09-.36-.21-.22-.41-.29-.37-.62-.11-.33Zm0,5.83,0-.12,0-.19.13-.2.19-.06h.08l0-.09.18.19.05.12h-.15l-.07.2-.14-.18-.05.12.05.11-.05.18h-.24Zm1.2,4.5-.15,0,.37-.07.25,0,.18-.13.24,0,.51-.08h.62l.14.06-.36,0-.63.14-.61,0-.27.05Zm.17,7.16.17.13,0,0Zm.32.71.12.25v.47h0l0,.06,0-.06h0V447Zm.32,4h.07l.1,0Zm.67-5.71v-.35l.05-.12v-.31l0,0,0,0v.31l-.05.12Zm.09-1.08h0l.06.17Zm0-.14h0l0,.12Zm-.17-4.05-.18,0-.18-.24-.29-.16.29.16.18.24.18,0,.32,0,.19.15.11.13L202,440l-.19-.15Zm.35,4,0-.05Zm.09-1.23.17.15.05.17-.05-.17Zm.11.59.11.1.06.15-.14.18.14-.18-.06-.15Zm.22-2.67,0-.06,0,.06,0,.15Zm0,.3,0,.13v0l0-.13,0-.12Zm-.18,1.4,0,.21Zm0-.51.11-.18-.11.18.08.1Zm.22-16.53-.1,0-.27-.1-.13.05.09.08,0,.08h-.15l-.18.08-.05.06v-.31l-.11-.13.08-.2,0-.13.1-.45V424l.14-.22-.12-.18h0l0-.22,0-.07V423l.12-.13-.16-.29v-.14l.18.11.24-.25.16.08.23,0,.14-.21.06.12h.17l.13.12.09-.05.16-.23.2.15h.17l.09-.14.07.17.24.08.05.24.21.17.19-.09h.16l.26-.18.09.08-.19.21h-.28l-.06.13h-.1l-.27.17-.06.15.06.11-.15.19-.16.24-.21.31-.18.09-.2.2.09,0,.18,0v.07l-.19,0-.06.08h-.12v.11l.19,0h.16l.13.11.09-.13.17,0v.11l-.32.2-.52.1-.2-.06-.05.22-.11-.09Zm.27,12.18h0l.28-.06Zm1.18-4-.21-.29-.05-.33.06-.22.12,0,.17.24.16.06.15.3v.38l.07.28,0,.25.08.23.27.21,0,.2,0,.46-.12.23-.07.05-.05.25,0,.44.07.17v.23l.07.13v.12l0,.1,0,.08.21.1.05.19-.05.12.07.16,0,.19-.27-.35h-.12l-.16.22-.13-.11,0-.24,0-.07.06-.16-.36-.38.07-.25v-.14l-.12-.08,0-.37-.15-.17v-.2l.14-.21.19-.46-.06-.47,0-.07,0-.44-.06-.17Zm.93,4.66v-.23l.14.08,0,.14-.11,0v.14Zm.55-21.19-.42.47.34-.38Zm-.56-5.94-.31-.05-.24-.15v0l0-.11v-.21l.08-.05.15.32Zm-.61,9.95.14.15,0,.06,0,0H204l-.22,0-.1-.1.06-.05Zm-.37.72.08.09-.11.1v.12l-.27-.36-.19-.1-.09,0-.18-.1h-.13l-.07-.08-.1,0-.06.05-.17,0-.19-.22-.1,0-.07-.13.07-.15.08.17.08,0,.11-.15.12-.14h.2l0,.12-.05.07,0-.06-.14.06-.06.13.1.1.14,0,.09-.12.37-.13.11.09-.06.11H203l-.15.1v.08l.1,0,.11,0,0,.08.13,0,.06-.15.13.06v.12h-.07l0,.06,0,.21.16.08Zm-1.78-2.61-.23-.08,0-.16,0,.16Zm-1.27,4.35.14-.07.12-.06.1.06H201l0,.09-.32.07-.23.08Zm.57-3.17,0,.14-.07.11,0,.26-.07.15-.2.16-.11.05,0,.11-.14.13-.16.16v.08l-.09.06h-.07l0-.12-.05-.07v-.12l.1-.06.13-.17.33-.4.22-.16.17-.27,0-.11Zm-.45-1.24,0,0-.08-.05.08.05Zm-.72-.63-.27-.09-.06-.08.06.08Zm-.56,4.79-.33.34-.14,0-.09-.15.13-.27.36-.15Zm-.54,1.18.27-.25,0,0Zm-.35.86,0,.16,0,.11Zm.14-.82.22.09,0,.21.08.14-.17.14,0,.09-.18.14-.05.07,0-.34-.08-.19.19-.19Zm-.07-6.34,0-.06h0Zm-5.26,36.88-.32-.22-.09,0,0-.16,0-.1H193l.28.21ZM193.18,406l-.07-4.08h0Zm0,35.33-.2.22-.2.25.2-.25Zm-1-30.42,0,0,0,.09Zm-.05,38.38-.26,0-.27.24.27-.24ZM188,452.6l-.14.07-.09.2.09-.2Zm-.1-34.07v0Zm-.07,6.16-.17.22v.22l-.13.2V425l0-.17-.13-.28v-.18h-.12l.1-.16h.12l.21-.11-.12.25,0,.14.11.14v.09Zm-.29,28.53V453l.09-.09-.09.09Zm-.5-.15-.08.08Zm-1.48-.9-.26.1-.1.18.07.07-.07-.07.1-.18Zm-1.95-43-.51-.26h0Zm-.1,11.21-1.32,0h0Zm-.83-12.08-.33-.12.19.07Zm-.59,19.17-.23.21.2-.18Zm-.56-18.75-.1.19.08-.14Zm-.25.23-.21-.15.12.08Zm-3-18.76-.64-2.06.64,2.06Zm-4.66,21.94-.15.21,0,.24,0,.1-.13-.41,0-.24-.1-.15,0-.16,0-.11.18-.06.06-.25-.12-.35.14.18.05.31-.07.53.05.06.11,0ZM170.47,409h0l-.35-.28Zm-1.08,4.89-.11.36.05.25-.06.48.07.44-.05.12,0,.29-.07.07-.09-.06,0-.25-.46-.28.25,0,.27.11.1-.12-.06-.29-.28-.27h-.17l-.06-.09.33-.14v-.12l-.41-.32-.49-.22-.09-.35-.35-.23-.11,0,.12-.13.2-.06v-.33l.08,0,.09.25,0,.26.17.19,0-.13.11.05.09.39.18.05.17-.08,0,.09-.11.1.08.15.37.17.07-.26,0-.43Zm0-7.17-.07.14,0-.08Zm-.28,0h0l-.29-.1.29.1Zm-2.68,4.27h0Zm-.32.57.11.09.12.29-.12-.29Zm-.61-3.26-.12,0Zm-1.71,2.4-.17,0Zm-.18.65.06-.25-.06.25,0,0-.16.11Zm-.33,3.4.12-.1.07.06-.07.18V415l-.06.06-.25-.3.06-.44.16-.18.15-.07-.12.14-.06.29Zm-3.16-21.44v0Zm-.53,13-.12-.16Zm-3,.81-.14-.11h0Zm-1.71,2.41,0-.31v0Zm52,.33.15-.16.32,0,.16,0,.05.19-.16.21-.05.18v.16l-.09-.07h-.07v-.2h-.2l-.1-.09Zm.57,6.68.17-.16.09.08,0,.12-.13.1-.05,0Zm.27-.26-.05,0,.12-.17v-.28l0-.12.17,0,.09.14-.05.15-.2.27ZM198,389.4h-.34l-.37-.23-.24,0-.35,0-.3-.19h-.12l-.12.08-.29-.21-.33-.07-.81-.06-.39-.13-.52,0-.1,0h0l-.09-.28-.15-.17-.19,0-.18,0-.7-.08-.14-.13-.27,0-.37-.1-.07-.12.07,0v-.13l-.44-.24H191l-.36-.09-.08-.05-.11.1-.22-.11h-.08l-.32.16-.5,0-.44.21-.25.24-.06.28-.13.1,0,.53.18.29.13.41-.09.23-.26.28,0,.09-.35.3-.21.08-.45-.18-.4-.32-.31-.26-.48-.24-.76-.32-.33,0-.11.06h-.4l-.34-.17-.32-.61V388l-.25-.35-.66-.09-.35-.23H182l-.32-.13-.73.14-.5-.11-.2-.19L180,387l-.13,0-.3-.19,0-.11v-.14l-.15-.09-.07,0,0,.07-.08.07-.14-.07,0-.15-.14,0-.33-.23-.16-.29.1-.31.51-.35.3-.3.07-.09-.08-.12.11-.12,0-.14-.08-.06v-.33l-.31-.12-.24-.34,0-.27.25-.17,0-.19.2-.3v-.2l-.09-.07-.37.33-.12.13-.11-.06-.15-.35-.1,0,0-.18-.13-.11-.23,0v.14l-.1-.15-.28,0-.37.19-.27.23h0l0-.06-.29.06-.15,0-.44.13-.23-.2-.28-.1v.11l-.18.17-.35,0,0-.16-.15-.11-.24.06v.14l-.21,0-.1.15-.13,0H174l-.21.16h-.24l-.13-.21-.28,0-.12,0-.28,0-.21,0-.11,0-.18-.06-.13,0-.11.21h-.21l-.2-.07-.26.25h-.16l-.24-.13-.22.08-.4,0-.22,0-.5.39-.29,0h-.14l-.25.15v.16l-.13.17h-.11l-.07-.06h-.14l-.11.08-.06.08-.29,0-.25.12-.12.12,0,.12-.2.22-.31.1h-.43l-.58-.05-.13-.13-.05-.2-.08,0h0l-.18.2-.33.07-.33-.09-.18,0-.21.12-.31,0-.23,0-.28-.31-.12-.08,0-.16v-.12l0-.06-.07-.08-.19.07-.09.08h-.16l-.2.21,0,.56-.22.29,0,.43-.14.27-.47.43h-.1l-.23.16-.38.13-.28.3h-.11l-.41.27-.25.09-.15.22-.47.34.17.35,0,.25-.41.38-.27.54v.23l.17.34-.13.38.08.09.12.14-.07.3-.65.73-.07.29-.29.32-.33,0-.72.65-1,.18-.25.35-.4.56v.4h-.19l-.71.37-.07.21-.28.16.08.27-.63.91,0,.3-.48.45-.15.08-.26.56,0,.16-.41.54,0,.1.12.1-.17.07-.33.6-.13,0-.14.15v.26l-.11.22,0,.34v0l-.11.23,0,.39.23-.25.08.25.09,0,.12-.1.3.44-.14.14.08.22-.07.35h-.14l-.11.08.29.45.2,1.07-.07.74-.25.35-.16.64-.05.42-.05.33-.26.49L151,407l.35.28.23.4.19,0v.21h-.09l.26.17-.14.1,0,.09,0,.15.26.13.24-.06-.16.15H152l-.21-.27-.18.18.12.15V409l-.1.11,0,.08.24-.13.35.13-.23.14-.11,0-.17-.05.08.07v.2h0l.09.16.34,0h.14l-.19.14.19.19h.21l0,.11.12,0,.26-.1.25-.05.28.15-.08.07H153l.07.09.17,0,.09.1-.06.1h.12l-.25.26.44-.05V411l0,.07.25-.08h0l.16.18-.09.38.23.32h.23l.16.07.09-.14.18.08-.08.08v.16l.09.1H155l.08.31.28.14.15.13h0l-.11.19v.16l.15.08-.14.26.07.16.2,0,.1.32v.23l.23.25.21-.08v.05l-.09.18.13.12.15.17-.06.12.23.06.55.29h.39l.13.07h0l-.08.15.17.08.27.37h.15l.39.26h0l0,0,.64.64.22,0,.78.59,1,.37.1,0,.36-.31H162l.08-.1.71-.27v-.1l.39-.05h1.36L165,417l.48.22,0-.25.2-.05.15.27.05.09.55.08.41.18.89-.43.62-.05.54-.45.49-.24.56-.07h.08l.56-.35.1,0,.37,0,.71-.24h0l.41.09.32-.13.76.39.42.42.26.5v.32l.14.07.11.36.27.24.37.1,1-.05.2-.13.15.07.48-.18.15.08.27-.06.1-.29.18.2.08,0h0l.14.07.16-.08.13.63.18,0,.09.11.31-.13.15.24-.07.14V419l.19.26,0,.4-.14.36.14.15-.16.16,0,0,.08.18-.33.37-.25.49.25.13v.31l-.22,0,.2.32.32.08-.45.11-.12-.12,0,.29-.05.57-.19.16-.25-.08v.11l.21.45.12.09v.17l.19.24v.31l.15.16.11.24.27.22-.08,0,.28.3.47.37.09.22.37.18,0,.18.18.07.05,0,.2.2.07.13.31.19v.19l.17.18v.2l.12.13.12.14.07.29-.12.22.06.12,0,.12h.3l.12.09-.29.17.11.13v.15l.56.64,0,.8.32.43-.05.41-.33.42.19.1v.37l.16.25V433l.39.63,0,.18.12.15v.91l-.4.76h-.13l-.45.34v.25l-.57.5v.35l-.09.07V438l-.25.33-.07.39-.28.34v.38l0,.32v.5l0,.33v.11l.06.87.61.63.32.56.51,1.14.08.46.52.73v.29l.54.79v.43l-.13.05.15.53,0,.8.3.81,0,.43.09.3-.15.09.13.16.07.54.14.07.1.18-.11.09v.21l.16.18,0,.39.19.26.25.49.25.25.05.14.35.25h0l.05.33.34.24.22.64v.28l.22.57.13.6.29.38V456l.29.49,0,.16.11.34-.06.32-.12.13h-.09l-.1-.1-.11.1v.26l.15.27.19.16.18.34-.14.22.05.26-.08.18v.21l.14.1,0-.19.18-.16.24.05,0,.21-.08.07.09,0,.15-.07.19.1,0,.25.1-.06.51.24.1,0,.11,0,.07-.15.18,0,.22-.25.25.05.05-.07.26,0,.3.11.16-.07.25,0,.06-.08.11-.09.13,0,.11,0,.05-.17.16-.07h.55l.24.13.17-.06v-.07l.31-.06.47.12.14.1.5.11.06-.06-.06-.13.15-.15.16,0,.22.11h.36v-.06l-.16-.13.11-.18.26-.08.32,0,.11.09.23,0,.23-.14.39-.1v-.07l.25-.07.15-.17.71-.46.17-.19v-.05l.13,0,1.08-1.06.05-.08h.1l.18-.22.19-.08.06-.29.33-.31.42-.72.16-.3h.19l.12-.22v-.1l.2-.23.13-.25.25-.16.1-.12.21-.1.06-.09h.09l.28-.33.05-.18.15-.18.1-.4.15-.31,0-.32.13-.37-.07,0,.13-.17v-.21l.1-.17,0-.29v-.09h-.06l0,.17-.15,0-.09.12v-.19l-.1-.19,0-.05.09-.07h.11l.07-.26.13-.1.08-.13.27-.06.34-.33.91-.18.66-.3.38-.4.06-.27.13-.19,0-.12-.16.09,0-.17h.06v-.21l.1-.12v-.17l.12-.33-.05,0,0-.28.08-.11,0-.28h0l0-.22-.12.25v.18h-.07l-.06-.22.05-.65-.12-.22v-.24l-.11-.18-.1-.05.13-.11v-.14l-.3-.4.11-.16,0-.16.08-.1v-.16l-.1-.12v-.08l.11,0,.2.13.1-.14h.25l.18-.13,0-.23.55-.37h.24v-.14l.09,0,.11-.09V442l.41-.25,0-.15.12,0,.05-.27.07.16.12,0,.26-.31V441l.1.07.42-.27.3-.15v-.05l.25,0,.66-.35,0-.14h.1l.69-.37,0-.2.17,0,.21-.28v-.13l.22-.29.13,0,0-.21.09-.13-.13,0-.05,0,0-.05.15-.15h.13l0-.1-.06-.1.11-.05.1-.15-.05-.4,0,0h-.21l-.05-.07v-.06l.15,0v-.46l-.06-.08h0l.08-.51,0-.27.11-.11v-.25l-.06-.07v-.26l.06-.06-.11-.22-.05-.37.08-.08,0-.06,0-.08,0-.1.21-.31-.06,0,.06-.12,0-.24-.08-.05h0v-.1l-.23-.19-.26,0-.37-.35,0-.16-.11-.31-.1-.11.1-.17-.12-.11,0-.2-.06-.12.06,0-.12-.27,0-.23.14-.11,0-.25-.16-.15,0-.38.06-.25.13-.08.08,0,.06-.12-.13-.38-.14,0-.22-.25-.29-.25v-.24l.17-.43.22-.68.07-.1,0-.16-.05-.06h.13l.22-.09.37-.55.15-.32v-.24l.17-.2.17-.27-.07-.05v-.12l.15-.17,0-.08.13,0h.3l.19-.26.35-.12-.06-.11.12-.13.08,0,.34-.42V424l.85-.94.1-.22.22-.21.21-.06.08-.15.1,0,.58-.64.15-.05.71-.74.36-.28.29-.2.34-.06.49-.42,1.15-1,.54-.66.32-.32.06-.22.71-.95v-.17l.38-.52,0-.33.58-1.11.14-.12-.11-.15,0-.11.23-.25.08,0,.15-.19.24-.51.36-.5,0-.26.07-.11,0-.25-.08-.13.15-.26.09,0h.14l0,0,.06,0-.06-.12-.06,0v.05l-.13,0,.07-.16,0-.18-.09-.12.09-.22.11-.09v-.06h-.14l0-.09.06-.11v-.16l.07-.17.11-.15-.05,0h-.12l-.26-.09-.13-.09,0,.05-.09,0-.13.13,0,0-.08.15,0,0-.18.19-.31,0,0,.09-.08-.08-.3,0-.19.15-.51.1h-.1l-.1-.06-.32,0-.29.15h-.28l-.16,0-.2-.09-.2,0-.63.38-.29,0-.21-.1-.1,0H216l-.06-.06h-.1l-.34.28h-.17l-.27.17-.09.11-.3,0-.25-.06-.26-.24-.1,0-.08-.16-.62-.69h-.07l-.06-.13,0-.07h-.27l-.16.07-.07,0-.11-.14h.22l.1-.15h.15l.19-.21.1,0,0-.32,0-.1h-.07l-.24-.23v-.08h0l-.05,0,0-.06-.09.07-.11-.06h-.11l-.09-.2,0-.06-.15-.19-.13,0-.17-.42-.07-.1v.06H212l-.15-.18-.21-.09-.15-.26-.35-.39-.06-.11-.29-.06-.1-.13-.19-.21-.13.05-.06,0-.16,0-.1.07-.12-.12-.17-.26.07-.08-.19-.26-.07,0,0,.21h.05v.29l-.18-.05,0-.32-.09-.22-.14,0V406l0-.27-.08,0-.14-.74-.43-1.13-.24-.26h-.08v-.14l-.22-.12h-.21v-.2l-.46-.3-.17,0-.18-.35-.14-.45.06-.38-.06-.4-.25-.74,0-.19,0,0,.08.1,0,.06h.05v-.1l-.19-.24-.07-.28,0-.06v0l0-.05,0-.05-.06-.08,0-.09,0-.09v0l-.18-.07-.24-.25-.06-.12-.22-.07-.13-.27-.12.06h-.2l-.31-.2-.16-.54,0-.14v-.26l-.07-.14,0-.09.07.07.31,0-.12-.13-.1,0-.17-.26-.07-.05v.07l-.11-.14-.09-.27-.41-.6-.17-.11-.05-.29-.65-1v-.22l-.11-.17,0-.4-.11-.13v-.12l-.35-.38V393l0-.16-.09-.16-.6-.51,0-.16-.38-.46v-.23l-.22-.28v-.06l-.54-.51a14.14,14.14,0,0,0-2.56-1.19l-.07.07Zm-18.68-3,.13-.11-.08-.09h-.18l0,.08Z" transform="translate(-148.18 -364.36)"/></svg>